<?xml version="1.0" encoding="utf-8"?>
<!-- Generator: Adobe Illustrator 22.1.0, SVG Export Plug-In . SVG Version: 6.00 Build 0)  -->
<svg version="1.1" id="Слой_1" xmlns="http://www.w3.org/2000/svg" xmlns:xlink="http://www.w3.org/1999/xlink" x="0px" y="0px"
	 viewBox="0 0 63.3 62.6" style="enable-background:new 0 0 63.3 62.6;" xml:space="preserve">
<style type="text/css">
	.st0{clip-path:url(#SVGID_2_);fill:#5D5C5E;}
	.st1{clip-path:url(#SVGID_2_);fill:#AF9C74;}
</style>
<g>
	<defs>
		<rect id="SVGID_1_" x="-18.4" y="-14.9" width="100" height="100"/>
	</defs>
	<clipPath id="SVGID_2_">
		<use xlink:href="#SVGID_1_"  style="overflow:visible;"/>
	</clipPath>
	<path class="st0" d="M62.5,31.5c0,17.2-14,31.2-31.2,31.2c-17.2,0-31.2-14-31.2-31.2c0-17.2,14-31.2,31.2-31.2
		C48.5,0.3,62.5,14.2,62.5,31.5"/>
	<path class="st1" d="M48.3,40.8c0,1.6-1.4,3-3,3H17.2c-1.7,0-3-1.4-3-3V22.1c0-1.6,1.3-3,3-3h28.1c1.6,0,3,1.3,3,3V40.8z"/>
	<path class="st1" d="M21,43.8h13.3l-12.3,7.7c-0.4,0.3-0.9,0-0.9-0.5V43.8z"/>
</g>
</svg>
