<?xml version="1.0" encoding="utf-8"?>
<!-- Generator: Adobe Illustrator 22.1.0, SVG Export Plug-In . SVG Version: 6.00 Build 0)  -->
<svg version="1.1" id="Слой_1" xmlns="http://www.w3.org/2000/svg" xmlns:xlink="http://www.w3.org/1999/xlink" x="0px" y="0px"
	 viewBox="0 0 62.9 62.6" style="enable-background:new 0 0 62.9 62.6;" xml:space="preserve">
<style type="text/css">
	.st0{clip-path:url(#SVGID_2_);fill:#424142;}
	.st1{clip-path:url(#SVGID_2_);fill:#AF9C74;}
</style>
<g>
	<defs>
		<rect id="SVGID_1_" x="-18.3" y="-15" width="100" height="100"/>
	</defs>
	<clipPath id="SVGID_2_">
		<use xlink:href="#SVGID_1_"  style="overflow:visible;"/>
	</clipPath>
	<path class="st0" d="M62.6,31.4c0,17.2-14,31.2-31.2,31.2c-17.2,0-31.2-14-31.2-31.2c0-17.2,14-31.2,31.2-31.2
		C48.6,0.2,62.6,14.2,62.6,31.4"/>
	<path class="st1" d="M48.4,40.7c0,1.6-1.4,3-3,3H17.4c-1.7,0-3-1.4-3-3V22c0-1.6,1.3-3,3-3h28.1c1.6,0,3,1.3,3,3V40.7z"/>
	<path class="st1" d="M21.1,43.7h13.3L22,51.4c-0.4,0.3-0.9,0-0.9-0.5V43.7z"/>
</g>
</svg>
